<svg width="320" height="276" viewBox="0 0 320 276" fill="none" xmlns="http://www.w3.org/2000/svg">
<path d="M106.88 264.877L107.006 269.69" stroke="white" stroke-miterlimit="10" stroke-linecap="round"/>
<path d="M110.459 260.013L110.796 272.529" stroke="white" stroke-miterlimit="10" stroke-linecap="round"/>
<path d="M114.426 269.593L114.58 275.369" stroke="white" stroke-miterlimit="10" stroke-linecap="round"/>
<path d="M210.135 231.157H105.99C102.966 231.157 100.497 228.672 100.497 225.639V5.51752C100.497 2.48043 102.971 0 105.99 0H210.135C213.159 0 215.629 2.48489 215.629 5.51752V225.639C215.633 228.672 213.159 231.157 210.135 231.157Z" fill="#D9E1EC"/>
<path d="M165.517 215.676C165.517 211.021 161.744 207.25 157.087 207.25C152.43 207.25 148.657 211.026 148.657 215.676C148.657 220.331 152.434 224.102 157.087 224.102C161.744 224.102 165.517 220.326 165.517 215.676Z" fill="#ACBDCC"/>
<path d="M166.258 16.1265H147.91C147.479 16.1265 147.128 15.7756 147.128 15.3447C147.128 14.9139 147.479 14.563 147.91 14.563H166.258C166.689 14.563 167.04 14.9139 167.04 15.3447C167.04 15.7756 166.689 16.1265 166.258 16.1265Z" fill="#C0CEDE"/>
<path d="M138.921 17.3566C140.033 17.3566 140.934 16.4558 140.934 15.3446C140.934 14.2334 140.033 13.3325 138.921 13.3325C137.81 13.3325 136.908 14.2334 136.908 15.3446C136.908 16.4558 137.81 17.3566 138.921 17.3566Z" fill="#C0CEDE"/>
<path d="M212.678 26.7751H102.008V201.705H212.678V26.7751Z" fill="#024C88"/>
<path d="M212.678 26.0488H102.008V63.2437H212.678V26.0488Z" fill="#FD5739"/>
<path opacity="0.51" d="M125.031 55.4577C131.388 55.4577 136.541 50.4226 136.541 44.2114C136.541 38.0002 131.388 32.9651 125.031 32.9651C118.673 32.9651 113.52 38.0002 113.52 44.2114C113.52 50.4226 118.673 55.4577 125.031 55.4577Z" fill="white"/>
<path opacity="0.51" d="M199.312 42.6689H149.012C147.989 42.6689 147.159 41.8576 147.159 40.858V37.3707C147.159 36.3711 147.989 35.5598 149.012 35.5598H199.312C200.335 35.5598 201.165 36.3711 201.165 37.3707V40.858C201.165 41.8576 200.335 42.6689 199.312 42.6689Z" fill="white"/>
<path opacity="0.51" d="M187.882 53.7276H148.941C147.959 53.7276 147.165 52.9521 147.165 51.9929V48.3621C147.165 47.4029 147.959 46.6274 148.941 46.6274H187.882C188.863 46.6274 189.657 47.4029 189.657 48.3621V51.9929C189.657 52.9521 188.863 53.7276 187.882 53.7276Z" fill="white"/>
<path d="M179.321 170.729C179.25 170.837 178.355 170.371 177.314 169.674C176.271 168.985 175.496 168.337 175.567 168.229C175.638 168.122 176.541 168.597 177.574 169.285C178.608 169.973 179.394 170.613 179.321 170.729Z" fill="#B3B3B3"/>
<path d="M187.282 174.943C187.227 175.063 186.277 174.716 185.147 174.178C184.019 173.63 183.16 173.106 183.224 172.989C183.288 172.871 184.238 173.217 185.359 173.754C186.471 174.29 187.337 174.824 187.282 174.943Z" fill="#B3B3B3"/>
<path d="M195.862 177.692C195.834 177.815 194.836 177.662 193.627 177.339C192.418 177.017 191.471 176.652 191.508 176.531C191.545 176.409 192.552 176.564 193.743 176.883C194.934 177.203 195.881 177.567 195.862 177.692Z" fill="#B3B3B3"/>
<path d="M204.796 178.785C204.794 178.912 203.778 178.938 202.533 178.847C201.29 178.747 200.287 178.565 200.306 178.441C200.325 178.316 201.333 178.289 202.569 178.379C203.803 178.477 204.797 178.657 204.796 178.785Z" fill="#B3B3B3"/>
<path d="M213.799 178.494C213.815 178.624 212.819 178.817 211.571 178.926C210.319 178.999 209.309 178.925 209.302 178.797C209.295 178.659 210.3 178.531 211.534 178.456C212.771 178.354 213.781 178.372 213.799 178.494Z" fill="#B3B3B3"/>
<path d="M222.569 176.492C222.614 176.617 221.671 176.992 220.469 177.336C219.267 177.681 218.265 177.855 218.238 177.732C218.211 177.61 219.155 177.226 220.338 176.888C221.53 176.551 222.525 176.367 222.569 176.492Z" fill="#B3B3B3"/>
<path d="M230.72 172.674C230.785 172.784 229.978 173.407 228.873 174.003C227.769 174.599 226.798 174.924 226.753 174.808C226.698 174.69 227.561 174.176 228.655 173.587C229.739 173.006 230.646 172.562 230.72 172.674Z" fill="#B3B3B3"/>
<path d="M237.777 167.11C237.873 167.197 237.238 168.002 236.299 168.833C235.359 169.664 234.492 170.205 234.416 170.102C234.332 169.998 235.069 169.3 235.988 168.485C236.908 167.66 237.682 167.013 237.777 167.11Z" fill="#B3B3B3"/>
<path d="M243.152 159.921C243.261 159.983 242.878 160.927 242.197 161.979C241.515 163.032 240.816 163.781 240.71 163.701C240.604 163.621 241.137 162.764 241.798 161.727C242.477 160.692 243.034 159.857 243.152 159.921Z" fill="#B3B3B3"/>
<path d="M246.142 151.473C246.267 151.493 246.218 152.515 245.894 153.731C245.579 154.949 245.118 155.871 245.006 155.827C244.886 155.781 245.136 154.808 245.447 153.617C245.749 152.424 246.008 151.453 246.142 151.473Z" fill="#B3B3B3"/>
<path d="M246.21 142.502C246.331 142.484 246.598 143.473 246.687 144.725C246.776 145.978 246.655 146.998 246.529 146.988C246.402 146.986 246.311 145.979 246.218 144.753C246.133 143.529 246.08 142.518 246.21 142.502Z" fill="#B3B3B3"/>
<path d="M243.563 133.923C243.672 133.867 244.232 134.728 244.689 135.9C245.146 137.073 245.338 138.077 245.214 138.113C245.09 138.149 244.704 137.224 244.253 136.07C243.801 134.925 243.444 133.987 243.563 133.923Z" fill="#B3B3B3"/>
<path d="M238.357 126.627C238.445 126.531 239.258 127.166 240.069 128.12C240.888 129.075 241.377 129.98 241.265 130.054C241.154 130.128 240.506 129.363 239.711 128.43C238.917 127.488 238.269 126.723 238.357 126.627Z" fill="#B3B3B3"/>
<path d="M230.83 121.769C230.876 121.649 231.877 121.903 233.001 122.477C234.125 123.051 234.917 123.71 234.847 123.809C234.776 123.916 233.89 123.452 232.791 122.891C231.692 122.33 230.784 121.89 230.83 121.769Z" fill="#B3B3B3"/>
<path d="M221.978 120.554C221.962 120.424 222.971 120.205 224.233 120.244C225.496 120.274 226.497 120.528 226.477 120.653C226.457 120.787 225.453 120.733 224.225 120.708C222.998 120.684 221.993 120.694 221.978 120.554Z" fill="#B3B3B3"/>
<path d="M213.637 123.671C213.551 123.576 214.293 122.842 215.417 122.24C216.531 121.636 217.542 121.408 217.588 121.525C217.632 121.65 216.72 122.066 215.645 122.649C214.562 123.23 213.721 123.775 213.637 123.671Z" fill="#B3B3B3"/>
<path d="M208.882 131.109C208.758 131.081 208.872 130.051 209.353 128.877C209.835 127.703 210.497 126.893 210.605 126.964C210.721 127.037 210.248 127.921 209.791 129.053C209.325 130.184 209.014 131.139 208.882 131.109Z" fill="#B3B3B3"/>
<path d="M209.286 140.006C209.169 140.052 208.731 139.11 208.504 137.864C208.278 136.617 208.354 135.59 208.474 135.581C208.611 135.575 208.74 136.57 208.964 137.78C209.187 138.989 209.42 139.963 209.286 140.006Z" fill="#B3B3B3"/>
<path d="M214.094 147.524C214.006 147.619 213.18 147.001 212.382 146.03C211.575 145.059 211.116 144.132 211.226 144.067C211.338 143.993 211.954 144.789 212.747 145.731C213.523 146.67 214.183 147.419 214.094 147.524Z" fill="#B3B3B3"/>
<path d="M221.629 152.382C221.583 152.503 220.597 152.214 219.483 151.633C218.369 151.052 217.575 150.401 217.647 150.293C217.718 150.186 218.614 150.643 219.703 151.211C220.79 151.788 221.675 152.262 221.629 152.382Z" fill="#B3B3B3"/>
<path d="M230.339 154.587C230.329 154.713 229.305 154.728 228.072 154.502C226.837 154.285 225.871 153.927 225.908 153.805C225.937 153.673 226.935 153.827 228.152 154.041C229.36 154.254 230.351 154.452 230.339 154.587Z" fill="#B3B3B3"/>
<path d="M239.318 154.312C239.345 154.435 238.354 154.711 237.103 154.838C235.852 154.965 234.835 154.882 234.836 154.754C234.828 154.625 235.833 154.497 237.065 154.376C238.287 154.254 239.293 154.18 239.318 154.312Z" fill="#B3B3B3"/>
<path d="M247.969 151.863C248.024 151.981 247.1 152.413 245.915 152.824C244.73 153.234 243.746 153.466 243.71 153.342C243.675 153.218 244.599 152.786 245.764 152.381C246.932 151.968 247.916 151.736 247.969 151.863Z" fill="#B3B3B3"/>
<path d="M255.922 147.659C255.996 147.77 255.183 148.374 254.1 149.01C253.026 149.647 252.104 150.071 252.04 149.952C251.985 149.834 252.799 149.23 253.862 148.6C254.935 147.972 255.857 147.548 255.922 147.659Z" fill="#B3B3B3"/>
<path d="M263 142.088C263.086 142.183 262.398 142.916 261.442 143.735C260.495 144.556 259.659 145.129 259.584 145.027C259.509 144.924 260.197 144.182 261.142 143.379C262.077 142.575 262.906 141.992 263 142.088Z" fill="#B3B3B3"/>
<path d="M269.034 135.42C269.14 135.5 268.572 136.342 267.777 137.305C266.972 138.265 266.252 138.975 266.156 138.887C266.06 138.8 266.628 137.957 267.413 137.003C268.207 136.049 268.936 135.341 269.034 135.42Z" fill="#B3B3B3"/>
<path d="M273.903 127.844C274.02 127.908 273.605 128.828 272.974 129.906C272.35 130.995 271.734 131.802 271.619 131.721C271.519 131.66 271.952 130.743 272.564 129.67C273.185 128.599 273.785 127.781 273.903 127.844Z" fill="#B3B3B3"/>
<path d="M277.702 119.695C277.822 119.741 277.519 120.706 277.022 121.859C276.526 123.004 276.034 123.894 275.916 123.83C275.797 123.775 276.101 122.811 276.596 121.666C277.09 120.53 277.583 119.64 277.702 119.695Z" fill="#B3B3B3"/>
<path d="M280.611 111.169C280.733 111.206 280.535 112.196 280.16 113.386C279.785 114.577 279.386 115.508 279.257 115.461C279.137 115.415 279.335 114.425 279.708 113.244C280.091 112.064 280.488 111.141 280.611 111.169Z" fill="#B3B3B3"/>
<path d="M282.794 102.441C282.917 102.469 282.799 103.471 282.512 104.684C282.234 105.898 281.903 106.859 281.772 106.82C281.649 106.792 281.768 105.781 282.054 104.577C282.34 103.373 282.671 102.413 282.794 102.441Z" fill="#B3B3B3"/>
<path d="M284.448 93.5952C284.573 93.6144 284.508 94.6247 284.292 95.8486C284.076 97.0724 283.798 98.0498 283.675 98.0218C283.55 98.0026 283.616 96.9834 283.83 95.7684C284.046 94.5446 284.323 93.576 284.448 93.5952Z" fill="#B3B3B3"/>
<path d="M285.756 84.6875C285.88 84.7067 285.853 85.7135 285.68 86.9531C285.509 88.1838 285.266 89.1667 285.141 89.1476C285.017 89.1284 285.045 88.1126 285.217 86.8819C285.388 85.6512 285.631 84.6683 285.756 84.6875Z" fill="#B3B3B3"/>
<path d="M286.465 79.1945C286.59 79.2137 286.671 79.4539 286.636 79.74C286.601 80.0262 286.467 80.2424 286.343 80.2233C286.218 80.2041 286.137 79.9639 286.172 79.6778C286.207 79.3917 286.34 79.1754 286.465 79.1945Z" fill="#B3B3B3"/>
<path d="M317.497 46.9332H267.751C266.369 46.9332 265.248 48.0589 265.248 49.4476V80.475C265.248 81.8637 266.369 82.9895 267.751 82.9895H317.497C318.879 82.9895 320 81.8637 320 80.475V49.4476C320 48.0589 318.879 46.9332 317.497 46.9332Z" fill="#E7EDF4"/>
<path d="M318.771 47.6012L292.623 64.4408L319.305 80.9867C319.748 80.4644 319.994 79.8044 319.999 79.1209V49.9989C319.988 49.5332 319.871 49.076 319.659 48.6611C319.446 48.2461 319.143 47.8839 318.771 47.6012Z" fill="#DBE3EE"/>
<path d="M266.166 47.6012C265.597 48.16 265.267 48.9242 265.247 49.7285V79.2853C265.258 79.7414 265.367 80.1895 265.565 80.5986C265.763 81.0077 266.046 81.368 266.395 81.6544L292.623 64.3861L266.166 47.6012Z" fill="#DBE3EE"/>
<path d="M316.394 46.9329H269.144C268.518 46.9389 267.902 47.0846 267.343 47.359C266.783 47.6335 266.295 48.0294 265.915 48.5167L288.144 65.4001C289.49 66.4285 291.151 66.9796 292.857 66.9638C294.563 66.948 296.213 66.3662 297.539 65.313L319.332 48.1366C318.947 47.7553 318.49 47.4526 317.986 47.246C317.481 47.0394 316.94 46.9329 316.394 46.9329Z" fill="#F0F4F8"/>
<path d="M144.899 116.904C144.966 116.975 145.577 116.509 146.267 115.85C146.959 115.197 147.456 114.609 147.388 114.538C147.321 114.467 146.706 114.941 146.02 115.592C145.335 116.243 144.829 116.826 144.899 116.904Z" fill="#B3B3B3"/>
<path d="M139.476 121.104C139.533 121.186 140.2 120.802 140.978 120.251C141.753 119.693 142.328 119.188 142.265 119.108C142.202 119.028 141.535 119.412 140.764 119.961C140 120.508 139.42 121.022 139.476 121.104Z" fill="#B3B3B3"/>
<path d="M133.398 124.286C133.435 124.375 134.164 124.129 135.029 123.729C135.894 123.33 136.557 122.933 136.513 122.846C136.469 122.76 135.734 123.007 134.882 123.403C134.031 123.798 133.368 124.195 133.398 124.286Z" fill="#B3B3B3"/>
<path d="M126.839 126.271C126.856 126.367 127.622 126.254 128.544 126.023C129.464 125.785 130.192 125.518 130.161 125.427C130.131 125.336 129.371 125.447 128.456 125.676C127.543 125.911 126.821 126.176 126.839 126.271Z" fill="#B3B3B3"/>
<path d="M120.048 127.228C120.052 127.328 120.825 127.343 121.776 127.262C122.724 127.153 123.472 126.966 123.461 126.868C123.447 126.764 122.677 126.799 121.742 126.904C120.8 126.989 120.045 127.135 120.048 127.228Z" fill="#B3B3B3"/>
<path d="M113.206 126.871C113.189 126.971 113.945 127.129 114.891 127.23C115.838 127.332 116.613 127.332 116.617 127.236C116.621 127.141 115.863 126.976 114.931 126.876C113.993 126.779 113.223 126.771 113.206 126.871Z" fill="#B3B3B3"/>
<path d="M106.594 125.069C106.559 125.161 107.246 125.523 108.152 125.826C109.058 126.13 109.829 126.247 109.848 126.153C109.874 126.058 109.159 125.784 108.261 125.485C107.373 125.191 106.634 124.976 106.594 125.069Z" fill="#B3B3B3"/>
<path d="M100.573 121.817C100.512 121.896 101.093 122.416 101.906 122.917C102.72 123.418 103.441 123.711 103.484 123.624C103.533 123.535 102.89 123.107 102.094 122.615C101.296 122.117 100.631 121.733 100.573 121.817Z" fill="#B3B3B3"/>
<path d="M95.6024 117.126C95.5289 117.187 95.939 117.845 96.5877 118.545C97.2365 119.246 97.8585 119.717 97.9276 119.643C97.9968 119.569 97.485 118.996 96.8536 118.304C96.2092 117.616 95.6824 117.063 95.6024 117.126Z" fill="#B3B3B3"/>
<path d="M92.2569 111.179C92.1658 111.209 92.3352 111.97 92.7372 112.84C93.1327 113.712 93.5992 114.344 93.6772 114.296C93.7617 114.246 93.447 113.549 93.0581 112.696C92.6756 111.841 92.3545 111.146 92.2569 111.179Z" fill="#B3B3B3"/>
<path d="M91.0354 104.457C90.9422 104.46 90.8711 105.236 90.9677 106.187C91.0642 107.139 91.288 107.888 91.3812 107.864C91.4765 107.847 91.4131 107.079 91.3232 106.147C91.2267 105.218 91.1351 104.453 91.0354 104.457Z" fill="#B3B3B3"/>
<path d="M91.9012 97.6759C91.8122 97.648 91.5045 98.3667 91.3147 99.3063C91.125 100.246 91.1126 101.024 91.2102 101.035C91.3079 101.046 91.4766 100.301 91.6642 99.3768C91.8541 98.4589 91.9989 97.7082 91.9012 97.6759Z" fill="#B3B3B3"/>
<path d="M94.8542 91.5226C94.7758 91.4621 94.2485 92.045 93.7653 92.8664C93.2757 93.6899 93.0267 94.4325 93.1201 94.4734C93.2136 94.5144 93.5996 93.856 94.0741 93.052C94.5464 92.2415 94.9325 91.5831 94.8542 91.5226Z" fill="#B3B3B3"/>
<path d="M99.8671 86.8967C99.8169 86.8122 99.0996 87.1333 98.3311 87.7106C97.5626 88.288 97.0547 88.8862 97.12 88.9511C97.1876 89.0226 97.7915 88.5585 98.5427 87.9943C99.2938 87.43 99.9173 86.9812 99.8671 86.8967Z" fill="#B3B3B3"/>
<path d="M106.349 84.829C106.344 84.7293 105.558 84.6973 104.617 84.8914C103.673 85.0789 102.956 85.4001 102.986 85.491C103.019 85.5885 103.765 85.4168 104.683 85.238C105.601 85.0592 106.356 84.9352 106.349 84.829Z" fill="#B3B3B3"/>
<path d="M113.014 86.0796C113.065 85.997 112.413 85.5434 111.492 85.2381C110.577 84.9305 109.789 84.8916 109.77 84.9849C109.753 85.0848 110.491 85.2778 111.374 85.5746C112.262 85.8692 112.964 86.1687 113.014 86.0796Z" fill="#B3B3B3"/>
<path d="M117.552 91.0387C117.641 91.0015 117.421 90.2433 116.907 89.4253C116.392 88.6073 115.79 88.0865 115.718 88.154C115.641 88.2236 116.111 88.8249 116.602 89.6148C117.099 90.4026 117.457 91.078 117.552 91.0387Z" fill="#B3B3B3"/>
<path d="M118.41 97.7666C118.504 97.7858 118.709 97.022 118.717 96.0571C118.724 95.0922 118.533 94.3317 118.442 94.3406C118.338 94.354 118.371 95.1171 118.361 96.0538C118.351 96.9905 118.304 97.7517 118.41 97.7666Z" fill="#B3B3B3"/>
<path d="M115.784 104.033C115.862 104.094 116.401 103.522 116.873 102.69C117.351 101.855 117.574 101.1 117.483 101.065C117.39 101.024 117.032 101.702 116.56 102.513C116.1 103.319 115.703 103.966 115.784 104.033Z" fill="#B3B3B3"/>
<path d="M110.765 108.662C110.815 108.746 111.517 108.401 112.277 107.819C113.037 107.238 113.547 106.646 113.479 106.575C113.412 106.503 112.799 106.963 112.057 107.531C111.316 108.107 110.715 108.577 110.765 108.662Z" fill="#B3B3B3"/>
<path d="M104.519 111.452C104.543 111.545 105.313 111.423 106.208 111.093C107.106 110.769 107.784 110.374 107.741 110.288C107.701 110.192 106.973 110.438 106.088 110.757C105.21 111.075 104.492 111.353 104.519 111.452Z" fill="#B3B3B3"/>
<path d="M97.7467 112.417C97.7427 112.513 98.5221 112.591 99.4769 112.523C100.432 112.455 101.184 112.26 101.167 112.164C101.155 112.067 100.385 112.101 99.4453 112.172C98.5123 112.239 97.7485 112.315 97.7467 112.417Z" fill="#B3B3B3"/>
<path d="M90.9382 111.709C90.9125 111.805 91.6619 112.009 92.6043 112.162C93.5467 112.316 94.3151 112.361 94.3256 112.264C94.3361 112.166 93.5867 111.962 92.6595 111.811C91.7301 111.653 90.9617 111.607 90.9382 111.709Z" fill="#B3B3B3"/>
<path d="M84.4218 109.593C84.3809 109.686 85.0699 110.034 85.9651 110.37C86.8538 110.707 87.6009 110.905 87.6331 110.807C87.6588 110.712 86.9697 110.364 86.0898 110.031C85.2033 109.699 84.4562 109.502 84.4218 109.593Z" fill="#B3B3B3"/>
<path d="M78.3856 106.338C78.3338 106.42 78.9451 106.88 79.7691 107.37C80.5865 107.863 81.2884 108.184 81.3315 108.097C81.3746 108.01 80.7611 107.543 79.948 107.064C79.1415 106.583 78.4439 106.253 78.3856 106.338Z" fill="#B3B3B3"/>
<path d="M72.9891 102.122C72.9199 102.196 73.4555 102.754 74.1779 103.373C74.9067 103.988 75.5395 104.427 75.6 104.349C75.6604 104.27 75.1248 103.712 74.4112 103.099C73.691 102.487 73.0517 102.051 72.9891 102.122Z" fill="#B3B3B3"/>
<path d="M68.3475 97.0747C68.2675 97.1378 68.6991 97.774 69.3132 98.5008C69.9231 99.2363 70.4909 99.7615 70.5666 99.6854C70.6336 99.6267 70.189 98.9948 69.5901 98.2701C68.9846 97.5477 68.4275 97.0116 68.3475 97.0747Z" fill="#B3B3B3"/>
<path d="M64.4336 91.4572C64.3492 91.5073 64.7029 92.1914 65.2261 92.9921C65.7471 93.7862 66.2327 94.3897 66.3128 94.3266C66.395 94.27 66.0413 93.5859 65.5203 92.7917C65.0015 92.0041 64.5158 91.4006 64.4336 91.4572Z" fill="#B3B3B3"/>
<path d="M61.1373 85.4412C61.0506 85.4848 61.3284 86.2015 61.7651 87.0455C62.2017 87.8895 62.6226 88.5362 62.7136 88.4839C62.7981 88.4337 62.5203 87.7171 62.0858 86.8796C61.6449 86.0443 61.2262 85.404 61.1373 85.4412Z" fill="#B3B3B3"/>
<path d="M58.3623 79.1779C58.2734 79.2151 58.4927 79.9514 58.8664 80.8238C59.2337 81.6985 59.6068 82.3758 59.7 82.3299C59.7889 82.2928 59.5675 81.5499 59.1959 80.684C58.8243 79.818 58.4511 79.1407 58.3623 79.1779Z" fill="#B3B3B3"/>
<path d="M55.9666 72.758C55.8755 72.7887 56.0557 73.5382 56.3774 74.4282C56.6991 75.3181 57.0354 76.0151 57.1243 75.9779C57.2154 75.9472 57.033 75.1912 56.7135 74.3078C56.3918 73.4178 56.0576 72.7274 55.9666 72.758Z" fill="#B3B3B3"/>
<path d="M52.8229 66.2463C52.7318 66.2769 52.8838 67.0287 53.1752 67.9361C53.4644 68.837 53.7747 69.5427 53.8657 69.5121C53.9568 69.4814 53.8026 68.7231 53.5134 67.8222C53.2243 66.9213 52.914 66.2156 52.8229 66.2463Z" fill="#B3B3B3"/>
<path d="M51.5744 62.2177C51.4833 62.2484 51.4535 62.4393 51.5171 62.6494C51.5807 62.8594 51.7092 63.0042 51.8002 62.9736C51.8913 62.9429 51.9211 62.752 51.8575 62.542C51.7939 62.3319 51.6654 62.1871 51.5744 62.2177Z" fill="#B3B3B3"/>
<path d="M33.8579 32.8811H68.9362C69.9111 32.8811 70.7014 33.6749 70.7014 34.6542V56.5332C70.7014 57.5125 69.9111 58.3063 68.9362 58.3063H33.8579C32.883 58.3063 32.0927 57.5125 32.0927 56.5332V34.6542C32.0927 33.6749 32.883 32.8811 33.8579 32.8811Z" fill="#E7EDF4"/>
<path d="M31.9598 33.3511L50.3979 45.2256L31.583 56.8929C31.2707 56.5246 31.0975 56.0592 31.0936 55.5773V35.0418C31.1017 34.7135 31.1837 34.3911 31.3336 34.0984C31.4835 33.8058 31.6975 33.5504 31.9598 33.3511Z" fill="#DBE3EE"/>
<path d="M70.0538 33.3511C70.455 33.7451 70.6876 34.284 70.7014 34.8512V55.6932C70.6937 56.0148 70.6173 56.3308 70.4775 56.6193C70.3377 56.9077 70.1379 57.1618 69.892 57.3638L51.3971 45.187L70.0538 33.3511Z" fill="#DBE3EE"/>
<path d="M34.6355 32.8801H67.9541C68.3951 32.8844 68.8293 32.9871 69.2238 33.1807C69.6183 33.3742 69.9626 33.6533 70.2307 33.997L54.5561 45.9024C53.6069 46.6275 52.4356 47.0162 51.2326 47.005C50.0297 46.9938 48.8661 46.5836 47.9311 45.841L32.5638 33.7289C32.8347 33.4601 33.1574 33.2466 33.513 33.1009C33.8686 32.9552 34.2501 32.8802 34.6355 32.8801Z" fill="#F0F4F8"/>
<g style="mix-blend-mode:multiply" opacity="0.3">
<path d="M221.495 253.871C221.495 257.204 192.32 259.902 156.343 259.902C120.365 259.902 91.1904 257.204 91.1904 253.871C91.1904 250.539 120.365 247.841 156.343 247.841C192.32 247.841 221.495 250.544 221.495 253.871Z" fill="url(#paint0_linear)"/>
<path d="M221.495 253.871C221.495 257.204 192.32 259.902 156.343 259.902C120.365 259.902 91.1904 257.204 91.1904 253.871C91.1904 250.539 120.365 247.841 156.343 247.841C192.32 247.841 221.495 250.544 221.495 253.871Z" fill="url(#paint1_linear)"/>
<path d="M221.495 253.871C221.495 257.204 192.32 259.902 156.343 259.902C120.365 259.902 91.1904 257.204 91.1904 253.871C91.1904 250.539 120.365 247.841 156.343 247.841C192.32 247.841 221.495 250.544 221.495 253.871Z" fill="url(#paint2_linear)"/>
</g>
<path d="M113.071 112.454L4.22907 112.454C1.89728 112.454 7.91635e-05 114.102 7.89915e-05 116.143L7.66048e-05 144.465C7.64334e-05 146.499 1.88892 148.154 4.22906 148.154L113.071 148.154C115.403 148.154 117.3 146.507 117.3 144.465L117.3 116.143C117.3 114.102 115.411 112.454 113.071 112.454Z" fill="#E7EDF4"/>
<path d="M19.2926 120.237C13.6135 120.237 9.00969 124.914 9.00969 130.683C9.00969 136.452 13.6135 141.129 19.2926 141.129C24.9717 141.129 29.5756 136.452 29.5756 130.683C29.5756 124.914 24.9717 120.237 19.2926 120.237Z" fill="white"/>
<path d="M97.7534 124.057L37.7785 124.057C36.8421 124.057 36.0824 124.253 36.0824 124.495L36.0824 126.296C36.0824 126.538 36.8421 126.735 37.7785 126.735L97.7534 126.735C98.6899 126.735 99.4496 126.538 99.4496 126.296L99.4496 124.495C99.4584 124.253 98.6987 124.057 97.7534 124.057Z" fill="#BFD4EA"/>
<path d="M90.8043 129.412L37.5871 129.412C36.7562 129.412 36.0821 129.609 36.0821 129.851L36.0821 131.652C36.0821 131.894 36.7562 132.09 37.5871 132.09L90.8043 132.09C91.6352 132.09 92.3094 131.894 92.3094 131.652L92.3094 129.851C92.3172 129.609 91.6431 129.412 90.8043 129.412Z" fill="#BFD4EA"/>
<path d="M102.965 133.875L37.9218 133.875C36.9062 133.875 36.0823 134.071 36.0823 134.313L36.0823 136.114C36.0823 136.356 36.9062 136.552 37.9218 136.552L102.965 136.552C103.981 136.552 104.805 136.356 104.805 136.114L104.805 134.313C104.814 134.071 103.99 133.875 102.965 133.875Z" fill="#BFD4EA"/>
<defs>
<linearGradient id="paint0_linear" x1="91.187" y1="253.873" x2="221.494" y2="253.873" gradientUnits="userSpaceOnUse">
<stop stop-color="#58595B" stop-opacity="0.12"/>
<stop offset="1" stop-color="#58595B" stop-opacity="0.07"/>
</linearGradient>
<linearGradient id="paint1_linear" x1="91.187" y1="253.873" x2="221.494" y2="253.873" gradientUnits="userSpaceOnUse">
<stop stop-color="#58595B" stop-opacity="0.12"/>
<stop offset="1" stop-color="#58595B" stop-opacity="0.07"/>
</linearGradient>
<linearGradient id="paint2_linear" x1="91.187" y1="253.873" x2="221.494" y2="253.873" gradientUnits="userSpaceOnUse">
<stop stop-color="#58595B" stop-opacity="0.12"/>
<stop offset="1" stop-color="#58595B" stop-opacity="0.07"/>
</linearGradient>
</defs>
</svg>
