<svg width="25" height="19" viewBox="0 0 25 19" fill="none" xmlns="http://www.w3.org/2000/svg">
<path d="M8.83788 12.6368L20.3654 0.972043C20.8556 0.40238 21.5431 0.0554713 22.2791 0.00657669C22.8014 -0.0316984 23.3224 0.0977685 23.7708 0.377272C24.2192 0.656776 24.5732 1.07267 24.7843 1.56808C24.9954 2.06349 25.0534 2.61422 24.9502 3.14497C24.847 3.67571 24.5878 4.16055 24.208 4.53319C19.7225 9.07562 15.2523 13.6022 10.7515 18.1288C10.506 18.3906 10.2122 18.5988 9.88739 18.741C9.56261 18.8831 9.21352 18.9564 8.86084 18.9564C8.50816 18.9564 8.15907 18.8831 7.83429 18.741C7.50952 18.5988 7.21567 18.3906 6.9702 18.1288C4.92902 16.0185 2.88783 13.9082 0.846653 11.7979C0.461637 11.4476 0.190404 10.983 0.0698746 10.4676C-0.0506543 9.95217 -0.0146223 9.41085 0.173064 8.91735C0.337787 8.47701 0.609841 8.08818 0.962811 7.78863C1.31578 7.48907 1.73767 7.28896 2.18752 7.20773C2.63737 7.1265 3.0999 7.16691 3.53018 7.32503C3.96047 7.48315 4.3439 7.75361 4.64325 8.11015C5.91388 9.42382 7.16921 10.785 8.43985 12.1303C8.57763 12.2886 8.68479 12.4468 8.83788 12.6368Z" fill="#11E1E1"/>
</svg>
