<svg width="20" height="20" viewBox="0 0 20 20" fill="none" xmlns="http://www.w3.org/2000/svg">
<g clip-path="url(#clip0)">
<path d="M19.9998 2.66083C19.9998 3.30107 19.7519 3.93888 19.2535 4.42149L4.17874 19.0548C3.2039 20.0006 1.64562 19.9788 0.697522 19.0063C-0.250576 18.0338 -0.228697 16.4793 0.746142 15.5335L15.8209 0.900182C16.7957 -0.0456232 18.354 -0.023797 19.3021 0.948685C19.7689 1.42644 19.9998 2.04485 19.9998 2.66083Z" fill="#E0E0E0"/>
<path d="M19.796 17.4975C19.796 18.1377 19.548 18.7755 19.0497 19.2581C18.0748 20.2039 16.5165 20.1821 15.5684 19.2096L0.897229 4.16888C-0.050869 3.1964 -0.0289899 1.64188 0.945849 0.69608C1.92069 -0.249725 3.47897 -0.227899 4.42707 0.744583L19.0983 15.7853C19.5626 16.2606 19.796 16.879 19.796 17.4975Z" fill="#E0E0E0"/>
</g>
<defs>
<clipPath id="clip0">
<rect width="20" height="19.9541" fill="white"/>
</clipPath>
</defs>
</svg>
