<svg fill="none" height="41" viewBox="0 0 56 41" width="56" xmlns="http://www.w3.org/2000/svg"><g fill="#00ced3"><path d="m15.2984 9.56138c-.1376.15354-.3055.27449-.4921.35465-.1865.08017-.3875.11767-.5892.10997l-12.62043.0236c-.39949-.0018-.783518-.16088-1.074767-.4453-.291248-.28441-.4680951-.67303-.4949516-1.08762-.0151803-.19819.0095113-.39751.0725056-.58523.062994-.18772.162906-.35972.293364-.50504.130459-.14532.288602-.26078.464343-.339.175746-.07822.365226-.11749.556366-.11531l12.66387-.0565c.4006.00157.7859.16032 1.0789.44453s.4721.67295.5015 1.08854c.014.20098-.0106.40286-.0723.59388-.0616.19102-.1592.36738-.2871.51883z" opacity=".5"/><path d="m9.29863 15.9116c-.14343.1487-.31682.2625-.5076.3331s-.39418.0962-.59549.075c-.39724-.0221-.77158-.1992-1.04827-.4959-.27669-.2968-.43537-.6913-.44435-1.1049l-.08042-13.15684c-.00213-.19872.03496-.39586.10898-.579226s.18341-.349058.32139-.48684.30161-.24472.48079-.314204c.17919-.069484.3701-.1000358.56095-.0897672.39893.0224122.77461.2011442 1.05142.5002202s.43421.696287.4405 1.111687l.12333 13.15977c.00287.1943-.03207.3873-.10274.5674s-.1756.3436-.30849.4805z" opacity=".5"/><path d="m35.4564 9.56138c-.1377.15354-.3055.27449-.4921.35465-.1866.08017-.3876.11767-.5893.10997l-12.6205.0236c-.3995-.0018-.7835-.16088-1.0748-.4453-.2912-.28441-.4681-.67303-.4949-1.08762-.0152-.19819.0095-.39751.0725-.58523s.1629-.35972.2934-.50504c.1304-.14532.2886-.26078.4643-.339s.3652-.11749.5564-.11531l12.6639-.0565c.4007.00157.786.16032 1.079.44453s.4721.67295.5015 1.08854c.014.20098-.0106.40286-.0723.59388s-.1593.36738-.2871.51883z" opacity=".5"/><path d="m29.4566 15.9116c-.1434.1487-.3168.2625-.5076.3331s-.3942.0962-.5955.075c-.3972-.0221-.7716-.1992-1.0483-.4959-.2767-.2968-.4353-.6913-.4443-1.1049l-.0804-13.15684c-.0022-.19872.0349-.39586.1089-.579226.0741-.183366.1835-.349058.3214-.48684.138-.137782.3016-.24472.4808-.314204s.3701-.1000358.561-.0897672c.3989.0224122.7746.2011442 1.0514.5002202s.4342.696287.4405 1.111687l.1233 13.15977c.0029.1943-.0321.3873-.1027.5674-.0707.1801-.1756.3436-.3085.4805z" opacity=".5"/><path d="m55.6142 9.56138c-.1377.15354-.3055.27449-.4921.35465-.1865.08017-.3875.11767-.5893.10997l-12.6203.0236c-.3995-.0018-.7836-.16088-1.0748-.4453-.2912-.28441-.4681-.67303-.495-1.08762-.0151-.19819.0096-.39751.0726-.58523.0629-.18772.1629-.35972.2933-.50504.1305-.14532.2886-.26078.4644-.339.1757-.07822.3652-.11749.5563-.11531l12.6639-.0565c.4006.00157.7859.16032 1.0789.44453s.4721.67295.5015 1.08854c.014.20098-.0106.40286-.0723.59388s-.1592.36738-.2871.51883z" opacity=".5"/><path d="m49.6144 15.9116c-.1434.1487-.3168.2625-.5076.3331s-.3942.0962-.5955.075c-.3972-.0221-.7715-.1992-1.0482-.4959-.2767-.2968-.4354-.6913-.4444-1.1049l-.0804-13.15684c-.0021-.19872.035-.39586.109-.579226s.1834-.349058.3214-.48684c.1379-.137782.3016-.24472.4808-.314204.1791-.069484.3701-.1000358.5609-.0897672.3989.0224122.7746.2011442 1.0514.5002202s.4342.696287.4405 1.111687l.1234 13.15977c.0028.1943-.0321.3873-.1028.5674s-.1756.3436-.3085.4805z" opacity=".5"/><path d="m15.2984 33.8701c-.1377.1535-.3055.2744-.4921.3546-.1865.0801-.3875.1176-.5892.1099l-12.62043.0236c-.39949-.0018-.783518-.1608-1.074767-.4452s-.4680951-.673-.4949516-1.0875c-.0151803-.1982.0095113-.3974.0725056-.5851.062994-.1877.162906-.3597.293364-.505s.288602-.2608.464343-.339c.175746-.0782.365226-.1174.556366-.1153l12.66387-.0564c.4006.0015.7859.1603 1.0789.4444.293.2842.4721.6729.5015 1.0884.014.201-.0106.4028-.0723.5938s-.1592.3673-.2871.5188z" opacity=".5"/><path d="m9.29863 40.2207c-.14343.1487-.31682.2625-.5076.3331-.19078.0705-.39418.0961-.59549.0749-.39724-.022-.77158-.1991-1.04827-.4959-.27669-.2967-.43537-.6913-.44435-1.1049l-.0804-13.1572c-.00213-.1987.03496-.3959.10898-.5792.07403-.1834.18341-.3491.32139-.4869s.30161-.2447.4808-.3142c.17918-.0695.3701-.1001.56095-.0898.39892.0224.7746.2012 1.05141.5003.27681.299.43421.6963.4405 1.1117l.12331 13.1601c.00287.1943-.03207.3874-.10274.5675s-.1756.3435-.30849.4805z" opacity=".5"/><path d="m35.4563 33.8701c-.1377.1535-.3055.2744-.4921.3546-.1866.0801-.3876.1176-.5893.1099l-12.6204.0236c-.3995-.0018-.7835-.1608-1.0748-.4452-.2912-.2844-.4681-.673-.4949-1.0875-.0152-.1982.0095-.3974.0725-.5851s.1629-.3597.2934-.505c.1304-.1453.2886-.2608.4643-.339s.3652-.1174.5564-.1153l12.6638-.0564c.4006.0015.786.1603 1.079.4444.293.2842.4721.6729.5015 1.0884.0139.201-.0106.4028-.0723.5938s-.1593.3673-.2871.5188z" opacity=".5"/><path d="m29.4566 40.2207c-.1434.1487-.3168.2625-.5076.3331-.1908.0705-.3942.0961-.5955.0749-.3972-.022-.7716-.1991-1.0483-.4959-.2767-.2967-.4353-.6913-.4443-1.1049l-.0804-13.1572c-.0022-.1987.0349-.3959.109-.5792.074-.1834.1834-.3491.3214-.4869.1379-.1378.3016-.2447.4807-.3142.1792-.0695.3701-.1001.561-.0898.3989.0224.7746.2012 1.0514.5003.2768.299.4342.6963.4405 1.1117l.1233 13.1601c.0029.1943-.0321.3874-.1027.5675-.0707.1801-.1756.3435-.3085.4805z" opacity=".5"/><path d="m55.6142 33.8701c-.1377.1535-.3055.2744-.4921.3546-.1865.0801-.3875.1176-.5893.1099l-12.6203.0236c-.3995-.0018-.7836-.1608-1.0748-.4452s-.4681-.673-.495-1.0875c-.0151-.1982.0096-.3974.0726-.5851.0629-.1877.1629-.3597.2933-.505.1305-.1453.2886-.2608.4644-.339.1757-.0782.3652-.1174.5563-.1153l12.6639-.0564c.4006.0015.7859.1603 1.0789.4444.293.2842.4721.6729.5015 1.0884.014.201-.0106.4028-.0723.5938s-.1593.3673-.2871.5188z" opacity=".5"/><path d="m49.6144 40.2207c-.1434.1487-.3168.2625-.5076.3331-.1908.0705-.3942.0961-.5955.0749-.3972-.022-.7715-.1991-1.0482-.4959-.2767-.2967-.4354-.6913-.4444-1.1049l-.0804-13.1572c-.0021-.1987.035-.3959.109-.5792.074-.1834.1834-.3491.3214-.4869s.3016-.2447.4808-.3142.3701-.1001.5609-.0898c.399.0224.7746.2012 1.0514.5003.2769.299.4343.6963.4405 1.1117l.1234 13.1601c.0028.1943-.0321.3874-.1028.5675s-.1756.3435-.3085.4805z" opacity=".5"/></g></svg>