<svg fill="none" height="92" viewBox="0 0 43 92" width="43" xmlns="http://www.w3.org/2000/svg"><g fill="#00ced3" fill-opacity=".35"><circle cx="37.9063" cy="4.68517" r="4.68517" transform="matrix(0 1 -1 0 42.59147 -33.22113)"/><circle cx="37.907" cy="20.8705" r="4.68517" transform="matrix(0 1 -1 0 58.7775 -17.0365)"/><circle cx="37.907" cy="37.9074" r="4.68517" transform="matrix(0 1 -1 0 75.8144 .0004)"/><circle cx="21.7218" cy="4.68523" r="4.68517" transform="matrix(0 1 -1 0 26.40703 -17.03657)"/><circle cx="21.7218" cy="20.8705" r="4.68517" transform="matrix(0 1 -1 0 42.5923 -.8513)"/><circle cx="21.7218" cy="37.9074" r="4.68517" transform="matrix(0 1 -1 0 59.6292 16.1856)"/><circle cx="4.68519" cy="4.68523" r="4.68517" transform="matrix(0 1 -1 0 9.37042 .00004)"/><circle cx="4.68519" cy="20.8705" r="4.68517" transform="matrix(0 1 -1 0 25.55569 16.18531)"/><circle cx="4.68519" cy="37.9074" r="4.68517" transform="matrix(0 1 -1 0 42.59259 33.22221)"/><circle cx="4.68519" cy="54.0923" r="4.68517" transform="matrix(0 1 -1 0 58.77749 49.40711)"/><circle cx="4.68519" cy="70.2779" r="4.68517" transform="matrix(0 1 -1 0 74.96309 65.59271)"/><circle cx="4.68519" cy="87.3149" r="4.68517" transform="matrix(0 1 -1 0 92.00009 82.62971)"/><circle cx="20.8704" cy="54.0923" r="4.68517" transform="matrix(0 1 -1 0 74.9627 33.2219)"/><circle cx="20.8704" cy="70.2779" r="4.68517" transform="matrix(0 1 -1 0 91.1483 49.4075)"/><circle cx="37.907" cy="54.0923" r="4.68517" transform="matrix(0 1 -1 0 91.9993 16.1853)"/></g></svg>